<svg width="163" height="39" viewBox="0 0 163 39" fill="none" xmlns="http://www.w3.org/2000/svg">
<path d="M18.664 3.91999L30.328 33.968C30.776 35.12 31.272 35.92 31.816 36.368C32.392 36.784 32.904 37.008 33.352 37.04V38C32.392 37.936 31.256 37.904 29.944 37.904C28.664 37.872 27.368 37.856 26.056 37.856C24.584 37.856 23.192 37.872 21.88 37.904C20.568 37.904 19.528 37.936 18.76 38V37.04C20.392 36.976 21.416 36.704 21.832 36.224C22.28 35.712 22.184 34.64 21.544 33.008L13.384 10.688L14.248 9.43999L6.95203 28.448C6.24803 30.208 5.81603 31.648 5.65603 32.768C5.52803 33.888 5.60803 34.752 5.89603 35.36C6.21603 35.968 6.71203 36.4 7.38403 36.656C8.08803 36.88 8.92003 37.008 9.88003 37.04V38C8.82403 37.936 7.81603 37.904 6.85603 37.904C5.89603 37.872 4.92003 37.856 3.92803 37.856C3.22403 37.856 2.55203 37.872 1.91203 37.904C1.30403 37.904 0.760029 37.936 0.280029 38V37.04C0.952029 36.912 1.64003 36.48 2.34403 35.744C3.04803 35.008 3.73603 33.76 4.40803 32L15.352 3.91999C15.864 3.95199 16.408 3.96799 16.984 3.96799C17.592 3.96799 18.152 3.95199 18.664 3.91999ZM22.024 24.176V25.136H7.72003L8.20003 24.176H22.024Z" fill="#141414"/>
<path d="M51.5917 12.512C52.9357 12.512 54.0237 12.688 54.8557 13.04C55.6877 13.36 56.3597 13.808 56.8717 14.384C57.3837 14.992 57.7517 15.792 57.9757 16.784C58.1997 17.744 58.3117 19.024 58.3117 20.624V33.536C58.3117 34.88 58.5197 35.792 58.9357 36.272C59.3517 36.752 60.0717 36.992 61.0957 36.992V38C60.5197 37.968 59.6397 37.936 58.4557 37.904C57.3037 37.84 56.1677 37.808 55.0477 37.808C53.8957 37.808 52.7597 37.84 51.6397 37.904C50.5197 37.936 49.6717 37.968 49.0957 38V36.992C49.9597 36.992 50.5517 36.752 50.8717 36.272C51.2237 35.792 51.3997 34.88 51.3997 33.536V18.608C51.3997 17.808 51.3357 17.12 51.2077 16.544C51.0797 15.936 50.8237 15.472 50.4397 15.152C50.0877 14.8 49.5437 14.624 48.8077 14.624C47.9757 14.624 47.2077 14.864 46.5037 15.344C45.7997 15.824 45.2237 16.496 44.7757 17.36C44.3597 18.192 44.1517 19.136 44.1517 20.192V33.536C44.1517 34.88 44.3277 35.792 44.6797 36.272C45.0317 36.752 45.6237 36.992 46.4557 36.992V38C45.9437 37.968 45.1437 37.936 44.0557 37.904C42.9997 37.84 41.9117 37.808 40.7917 37.808C39.5757 37.808 38.3277 37.84 37.0477 37.904C35.7677 37.936 34.8077 37.968 34.1677 38V36.992C35.2877 36.992 36.0717 36.752 36.5197 36.272C36.9997 35.792 37.2397 34.88 37.2397 33.536V18.416C37.2397 16.976 37.0157 15.92 36.5677 15.248C36.1517 14.544 35.3517 14.192 34.1677 14.192V13.184C35.1917 13.28 36.1837 13.328 37.1437 13.328C38.4877 13.328 39.7357 13.28 40.8877 13.184C42.0717 13.056 43.1597 12.88 44.1517 12.656V16.976C44.9197 15.376 45.9597 14.24 47.2717 13.568C48.5837 12.864 50.0237 12.512 51.5917 12.512ZM66.0397 12.512C67.3837 12.512 68.4717 12.688 69.3037 13.04C70.1357 13.36 70.8077 13.808 71.3197 14.384C71.8317 14.992 72.1997 15.792 72.4237 16.784C72.6477 17.744 72.7597 19.024 72.7597 20.624V33.536C72.7597 34.88 72.9837 35.792 73.4317 36.272C73.9117 36.752 74.7117 36.992 75.8317 36.992V38C75.2237 37.968 74.3117 37.936 73.0957 37.904C71.8797 37.84 70.6797 37.808 69.4957 37.808C68.3437 37.808 67.2077 37.84 66.0877 37.904C64.9677 37.936 64.1197 37.968 63.5437 38V36.992C64.4077 36.992 64.9997 36.752 65.3197 36.272C65.6717 35.792 65.8477 34.88 65.8477 33.536V18.608C65.8477 17.808 65.7677 17.12 65.6077 16.544C65.4797 15.936 65.2077 15.472 64.7917 15.152C64.4077 14.8 63.7997 14.624 62.9677 14.624C62.1357 14.624 61.3677 14.88 60.6637 15.392C59.9597 15.904 59.3837 16.592 58.9357 17.456C58.5197 18.32 58.2957 19.28 58.2637 20.336L58.0237 17.408C58.8877 15.488 60.0237 14.192 61.4317 13.52C62.8717 12.848 64.4077 12.512 66.0397 12.512Z" fill="#141414"/>
<path d="M84.2448 38.336C82.8048 38.336 81.6048 38.064 80.6448 37.52C79.6848 36.976 78.9808 36.256 78.5328 35.36C78.0848 34.432 77.8608 33.424 77.8608 32.336C77.8608 30.96 78.1648 29.84 78.7728 28.976C79.4128 28.112 80.2288 27.408 81.2208 26.864C82.2128 26.32 83.2528 25.872 84.3408 25.52C85.4608 25.168 86.5168 24.832 87.5088 24.512C88.5328 24.16 89.3488 23.76 89.9568 23.312C90.5968 22.832 90.9168 22.224 90.9168 21.488V17.744C90.9168 16.912 90.7728 16.176 90.4848 15.536C90.2288 14.864 89.8128 14.352 89.2368 14C88.6928 13.648 87.9728 13.472 87.0768 13.472C86.4368 13.472 85.7968 13.568 85.1568 13.76C84.5168 13.92 83.9888 14.208 83.5728 14.624C84.4688 14.944 85.1568 15.44 85.6368 16.112C86.1488 16.752 86.4048 17.488 86.4048 18.32C86.4048 19.408 86.0208 20.272 85.2528 20.912C84.5168 21.552 83.6368 21.872 82.6128 21.872C81.4608 21.872 80.5808 21.52 79.9728 20.816C79.3968 20.08 79.1088 19.2 79.1088 18.176C79.1088 17.248 79.3328 16.48 79.7808 15.872C80.2608 15.264 80.9168 14.688 81.7488 14.144C82.6448 13.632 83.7168 13.232 84.9648 12.944C86.2448 12.656 87.6208 12.512 89.0928 12.512C90.5648 12.512 91.8928 12.672 93.0768 12.992C94.2608 13.28 95.2528 13.824 96.0528 14.624C96.7888 15.36 97.2688 16.272 97.4928 17.36C97.7168 18.416 97.8288 19.76 97.8288 21.392V34.448C97.8288 35.248 97.9088 35.808 98.0688 36.128C98.2288 36.416 98.5008 36.56 98.8848 36.56C99.1728 36.56 99.4448 36.48 99.7008 36.32C99.9888 36.16 100.293 35.968 100.613 35.744L101.093 36.56C100.421 37.136 99.6368 37.584 98.7408 37.904C97.8768 38.192 96.9008 38.336 95.8128 38.336C94.6288 38.336 93.6848 38.176 92.9808 37.856C92.2768 37.504 91.7648 37.04 91.4448 36.464C91.1568 35.888 91.0128 35.216 91.0128 34.448C90.2448 35.664 89.3168 36.624 88.2288 37.328C87.1408 38 85.8128 38.336 84.2448 38.336ZM87.6528 35.264C88.2928 35.264 88.8688 35.12 89.3808 34.832C89.9248 34.512 90.4368 34 90.9168 33.296V23.456C90.6288 23.936 90.2288 24.368 89.7168 24.752C89.2048 25.136 88.6608 25.536 88.0848 25.952C87.5088 26.336 86.9488 26.768 86.4048 27.248C85.8928 27.728 85.4768 28.32 85.1568 29.024C84.8368 29.728 84.6768 30.576 84.6768 31.568C84.6768 32.816 84.9488 33.744 85.4928 34.352C86.0368 34.96 86.7568 35.264 87.6528 35.264Z" fill="#141414"/>
<path d="M118.977 12.512C120.001 12.512 120.833 12.736 121.473 13.184C122.113 13.6 122.577 14.144 122.865 14.816C123.185 15.488 123.345 16.192 123.345 16.928C123.345 18.112 122.993 19.088 122.289 19.856C121.617 20.592 120.721 20.96 119.601 20.96C118.481 20.96 117.601 20.688 116.961 20.144C116.353 19.568 116.049 18.816 116.049 17.888C116.049 16.992 116.241 16.256 116.625 15.68C117.041 15.072 117.553 14.56 118.161 14.144C117.713 14.016 117.265 14.032 116.817 14.192C116.209 14.288 115.633 14.544 115.089 14.96C114.545 15.344 114.081 15.84 113.697 16.448C113.313 17.024 113.009 17.664 112.785 18.368C112.561 19.04 112.449 19.696 112.449 20.336V33.056C112.449 34.592 112.817 35.632 113.553 36.176C114.321 36.72 115.457 36.992 116.961 36.992V38C116.225 37.968 115.153 37.936 113.745 37.904C112.337 37.84 110.865 37.808 109.329 37.808C108.049 37.808 106.753 37.84 105.441 37.904C104.129 37.936 103.137 37.968 102.465 38V36.992C103.585 36.992 104.369 36.752 104.817 36.272C105.297 35.792 105.537 34.88 105.537 33.536V18.416C105.537 16.976 105.313 15.92 104.865 15.248C104.449 14.544 103.649 14.192 102.465 14.192V13.184C103.489 13.28 104.481 13.328 105.441 13.328C106.785 13.328 108.033 13.28 109.185 13.184C110.369 13.056 111.457 12.88 112.449 12.656V17.12C112.833 16.256 113.345 15.472 113.985 14.768C114.625 14.064 115.361 13.52 116.193 13.136C117.025 12.72 117.953 12.512 118.977 12.512Z" fill="#141414"/>
<path d="M131.495 38.336C130.055 38.336 128.855 38.064 127.895 37.52C126.935 36.976 126.231 36.256 125.783 35.36C125.335 34.432 125.111 33.424 125.111 32.336C125.111 30.96 125.415 29.84 126.023 28.976C126.663 28.112 127.479 27.408 128.471 26.864C129.463 26.32 130.503 25.872 131.591 25.52C132.711 25.168 133.767 24.832 134.759 24.512C135.783 24.16 136.599 23.76 137.207 23.312C137.847 22.832 138.167 22.224 138.167 21.488V17.744C138.167 16.912 138.023 16.176 137.735 15.536C137.479 14.864 137.063 14.352 136.487 14C135.943 13.648 135.223 13.472 134.327 13.472C133.687 13.472 133.047 13.568 132.407 13.76C131.767 13.92 131.239 14.208 130.823 14.624C131.719 14.944 132.407 15.44 132.887 16.112C133.399 16.752 133.655 17.488 133.655 18.32C133.655 19.408 133.271 20.272 132.503 20.912C131.767 21.552 130.887 21.872 129.863 21.872C128.711 21.872 127.831 21.52 127.223 20.816C126.647 20.08 126.359 19.2 126.359 18.176C126.359 17.248 126.583 16.48 127.031 15.872C127.511 15.264 128.167 14.688 128.999 14.144C129.895 13.632 130.967 13.232 132.215 12.944C133.495 12.656 134.871 12.512 136.343 12.512C137.815 12.512 139.143 12.672 140.327 12.992C141.511 13.28 142.503 13.824 143.303 14.624C144.039 15.36 144.519 16.272 144.743 17.36C144.967 18.416 145.079 19.76 145.079 21.392V34.448C145.079 35.248 145.159 35.808 145.319 36.128C145.479 36.416 145.751 36.56 146.135 36.56C146.423 36.56 146.695 36.48 146.951 36.32C147.239 36.16 147.543 35.968 147.863 35.744L148.343 36.56C147.671 37.136 146.887 37.584 145.991 37.904C145.127 38.192 144.151 38.336 143.063 38.336C141.879 38.336 140.935 38.176 140.231 37.856C139.527 37.504 139.015 37.04 138.695 36.464C138.407 35.888 138.263 35.216 138.263 34.448C137.495 35.664 136.567 36.624 135.479 37.328C134.391 38 133.063 38.336 131.495 38.336ZM134.903 35.264C135.543 35.264 136.119 35.12 136.631 34.832C137.175 34.512 137.687 34 138.167 33.296V23.456C137.879 23.936 137.479 24.368 136.967 24.752C136.455 25.136 135.911 25.536 135.335 25.952C134.759 26.336 134.199 26.768 133.655 27.248C133.143 27.728 132.727 28.32 132.407 29.024C132.087 29.728 131.927 30.576 131.927 31.568C131.927 32.816 132.199 33.744 132.743 34.352C133.287 34.96 134.007 35.264 134.903 35.264Z" fill="#141414"/>
<path d="M159.507 0.415985V33.536C159.507 34.88 159.731 35.792 160.179 36.272C160.659 36.752 161.459 36.992 162.579 36.992V38C161.971 37.968 161.059 37.936 159.843 37.904C158.627 37.84 157.395 37.808 156.147 37.808C154.899 37.808 153.635 37.84 152.355 37.904C151.107 37.936 150.163 37.968 149.523 38V36.992C150.643 36.992 151.427 36.752 151.875 36.272C152.355 35.792 152.595 34.88 152.595 33.536V6.17599C152.595 4.73599 152.371 3.67999 151.923 3.00799C151.507 2.30399 150.707 1.95199 149.523 1.95199V0.943987C150.547 1.03999 151.539 1.08799 152.499 1.08799C153.811 1.08799 155.059 1.03999 156.243 0.943987C157.427 0.815987 158.515 0.639986 159.507 0.415985Z" fill="#141414"/>
</svg>
