<svg width="20" height="20" viewBox="0 0 20 20" fill="none" xmlns="http://www.w3.org/2000/svg">
<path d="M11.6666 7.33337C11.6666 7.25676 11.6945 7.17802 11.7504 7.09715C11.8063 7.01628 11.8686 6.96308 11.9374 6.93754C12.3541 6.78476 12.78 6.66671 13.2153 6.58337C13.6505 6.50004 14.1082 6.45837 14.5884 6.45837C14.8886 6.45837 15.185 6.47574 15.4776 6.51046C15.7703 6.54518 16.0555 6.59726 16.3333 6.66671C16.4166 6.69449 16.493 6.74584 16.5624 6.82077C16.6319 6.89571 16.6666 6.98002 16.6666 7.07369C16.6666 7.23292 16.6145 7.35421 16.5103 7.43754C16.4062 7.52087 16.2777 7.54171 16.1249 7.50004C15.8916 7.4306 15.6458 7.37851 15.3874 7.34379C15.1291 7.30907 14.861 7.29171 14.5833 7.29171C14.1805 7.29171 13.7916 7.3299 13.4166 7.40629C13.0416 7.48268 12.6735 7.59726 12.3124 7.75004C12.118 7.81949 11.9617 7.81601 11.8437 7.73962C11.7256 7.66324 11.6666 7.52782 11.6666 7.33337ZM11.6666 11.9167C11.6666 11.8361 11.6945 11.7532 11.7504 11.6681C11.8063 11.5829 11.8686 11.5269 11.9374 11.5C12.3541 11.3473 12.78 11.2327 13.2153 11.1563C13.6505 11.0799 14.1082 11.0417 14.5884 11.0417C14.8886 11.0417 15.185 11.0591 15.4776 11.0938C15.7703 11.1285 16.0555 11.1806 16.3333 11.25C16.4166 11.2778 16.493 11.3292 16.5624 11.4041C16.6319 11.479 16.6666 11.5634 16.6666 11.657C16.6666 11.8163 16.6145 11.9375 16.5103 12.0209C16.4062 12.1042 16.2777 12.125 16.1249 12.0834C15.8916 12.0139 15.6458 11.9618 15.3874 11.9271C15.1291 11.8924 14.861 11.875 14.5833 11.875C14.1805 11.875 13.7916 11.9098 13.4166 11.9792C13.0416 12.0487 12.6735 12.1598 12.3124 12.3125C12.118 12.382 11.9617 12.382 11.8437 12.3125C11.7256 12.2431 11.6666 12.1112 11.6666 11.9167ZM11.6666 9.62504C11.6666 9.54843 11.6945 9.46969 11.7504 9.38881C11.8063 9.30795 11.8686 9.25475 11.9374 9.22921C12.3541 9.07643 12.78 8.95837 13.2153 8.87504C13.6505 8.79171 14.1082 8.75004 14.5884 8.75004C14.8886 8.75004 15.185 8.7674 15.4776 8.80212C15.7703 8.83685 16.0555 8.88893 16.3333 8.95837C16.4166 8.98615 16.493 9.03751 16.5624 9.11244C16.6319 9.18738 16.6666 9.27169 16.6666 9.36535C16.6666 9.52459 16.6145 9.64587 16.5103 9.72921C16.4062 9.81254 16.2777 9.83337 16.1249 9.79171C15.8916 9.72226 15.6458 9.67018 15.3874 9.63546C15.1291 9.60074 14.861 9.58337 14.5833 9.58337C14.1805 9.58337 13.7916 9.62157 13.4166 9.69796C13.0416 9.77435 12.6735 9.88893 12.3124 10.0417C12.118 10.1112 11.9617 10.1077 11.8437 10.0313C11.7256 9.9549 11.6666 9.81949 11.6666 9.62504ZM5.16659 13.75C5.91056 13.75 6.63475 13.8368 7.33915 14.0105C8.04355 14.1841 8.73603 14.4445 9.41659 14.7917V5.89587C8.79159 5.47921 8.11368 5.15629 7.38286 4.92712C6.65205 4.69796 5.91329 4.58337 5.16659 4.58337C4.63881 4.58337 4.12145 4.64935 3.6145 4.78129C3.10756 4.91324 2.59714 5.07643 2.08325 5.27087V14.3125C2.51381 14.1181 3.00339 13.9757 3.552 13.8855C4.10061 13.7952 4.63881 13.75 5.16659 13.75ZM10.6666 14.7917C11.361 14.4445 12.0416 14.1841 12.7083 14.0105C13.3749 13.8368 14.0833 13.75 14.8333 13.75C15.361 13.75 15.9062 13.7917 16.4687 13.875C17.0312 13.9584 17.5138 14.0695 17.9166 14.2084V5.27087C17.4444 5.03476 16.9456 4.86115 16.4203 4.75004C15.895 4.63893 15.366 4.58337 14.8333 4.58337C14.0833 4.58337 13.3576 4.69796 12.6562 4.92712C11.9548 5.15629 11.2916 5.47921 10.6666 5.89587V14.7917ZM10.0416 16.4375C9.93689 16.4375 9.8378 16.4271 9.74431 16.4063C9.65083 16.3855 9.56936 16.3473 9.49992 16.2917C8.84714 15.8889 8.15376 15.5764 7.41977 15.3542C6.68577 15.132 5.93471 15.0209 5.16659 15.0209C4.65913 15.0209 4.16074 15.0834 3.67142 15.2084C3.18209 15.3334 2.69436 15.4862 2.20825 15.6667C1.88742 15.8195 1.57804 15.7987 1.28013 15.6042C0.98221 15.4098 0.833252 15.132 0.833252 14.7709V5.12504C0.833252 4.91671 0.881863 4.72574 0.979085 4.55212C1.07631 4.37851 1.22214 4.2431 1.41659 4.14587C1.99992 3.8681 2.60683 3.66324 3.23731 3.53129C3.86779 3.39935 4.51088 3.33337 5.16659 3.33337C6.04159 3.33337 6.89228 3.45143 7.71867 3.68754C8.54506 3.92365 9.31936 4.28476 10.0416 4.77087C10.7499 4.28476 11.5103 3.92365 12.3228 3.68754C13.1353 3.45143 13.9721 3.33337 14.8333 3.33337C15.4842 3.33337 16.1226 3.39935 16.7485 3.53129C17.3745 3.66324 17.9791 3.8681 18.5624 4.14587C18.7569 4.2431 18.9062 4.37851 19.0103 4.55212C19.1145 4.72574 19.1666 4.91671 19.1666 5.12504V14.7709C19.1666 15.1583 19.0103 15.4531 18.6978 15.6552C18.3853 15.8573 18.0763 15.8612 17.7708 15.6667C17.2985 15.4723 16.8178 15.316 16.3284 15.198C15.8391 15.0799 15.3407 15.0209 14.8333 15.0209C14.0794 15.0209 13.3424 15.132 12.6221 15.3542C11.9017 15.5764 11.2221 15.8889 10.5833 16.2917C10.5138 16.3473 10.4323 16.3855 10.3389 16.4063C10.2454 16.4271 10.1463 16.4375 10.0416 16.4375Z" fill="url(#paint0_linear_12_160)"/>
<defs>
<linearGradient id="paint0_linear_12_160" x1="9.99992" y1="3.33337" x2="9.99992" y2="16.4375" gradientUnits="userSpaceOnUse">
<stop stop-color="#DE7171"/>
<stop offset="1" stop-color="#DB1F1F"/>
</linearGradient>
</defs>
</svg>
