<svg width="20" height="20" viewBox="0 0 20 20" fill="none" xmlns="http://www.w3.org/2000/svg">
<path d="M10.0209 18.3333L9.16675 15.8333H3.33341C2.8473 15.8333 2.448 15.677 2.1355 15.3645C1.823 15.052 1.66675 14.6527 1.66675 14.1666V3.33329C1.66675 2.84718 1.823 2.44788 2.1355 2.13538C2.448 1.82288 2.8473 1.66663 3.33341 1.66663H8.33341L9.06258 4.15413H16.6667C17.1529 4.15413 17.5522 4.30959 17.8647 4.62052C18.1772 4.93147 18.3334 5.32878 18.3334 5.81246V16.6666C18.3334 17.1527 18.1776 17.552 17.8658 17.8645C17.5541 18.177 17.1558 18.3333 16.6709 18.3333H10.0209ZM5.97302 12.1666C6.9355 12.1666 7.7223 11.8557 8.33341 11.2338C8.94453 10.6118 9.25008 9.80474 9.25008 8.81246V8.48954C9.25008 8.39926 9.2361 8.3194 9.20814 8.24996H5.89591V9.52079H7.77091C7.6598 9.92286 7.448 10.2352 7.1355 10.4578C6.823 10.6803 6.44453 10.7916 6.00008 10.7916C5.45841 10.7916 4.99314 10.5952 4.60425 10.2023C4.21536 9.80938 4.02091 9.32528 4.02091 8.74996C4.02091 8.17464 4.21536 7.69054 4.60425 7.29765C4.99314 6.90474 5.45662 6.70829 5.99471 6.70829C6.24305 6.70829 6.4776 6.75343 6.69835 6.84371C6.9191 6.93399 7.11915 7.0694 7.2985 7.24996L8.31258 6.29163C8.0348 5.98607 7.68758 5.74996 7.27091 5.58329C6.85425 5.41663 6.42369 5.33329 5.97925 5.33329C5.0348 5.33329 4.23272 5.66663 3.573 6.33329C2.91328 6.99996 2.58341 7.80551 2.58341 8.74996C2.58341 9.6944 2.91471 10.5 3.57729 11.1666C4.23986 11.8333 5.03843 12.1666 5.97302 12.1666ZM11.5502 12.5625L12.0209 12.125C11.8265 11.8888 11.6459 11.6632 11.4792 11.4479C11.3126 11.2326 11.1529 11 11.0001 10.75L11.5502 12.5625ZM12.5875 11.5C12.9814 11.0416 13.2804 10.6041 13.4844 10.1875C13.6884 9.77079 13.8256 9.4444 13.8959 9.20829H10.5834L10.8126 10.1041H11.6459C11.757 10.3083 11.889 10.5295 12.0417 10.7677C12.1945 11.0059 12.3764 11.25 12.5875 11.5ZM10.8542 17.5H16.6667C16.9029 17.5 17.1008 17.42 17.2605 17.2599C17.4202 17.0999 17.5001 16.9017 17.5001 16.6651V5.81246C17.5001 5.57635 17.4202 5.37843 17.2605 5.21871C17.1008 5.05899 16.9029 4.97913 16.6667 4.97913H9.33341L10.2917 8.37496H11.9376V7.47913H12.7917V8.37496H15.8542V9.20829H14.7709C14.6459 9.73607 14.4445 10.251 14.1667 10.7531C13.889 11.2552 13.5626 11.7224 13.1876 12.1548L15.4584 14.3933L14.8542 15L12.5834 12.75L11.8334 13.5L12.5209 15.8333L10.8542 17.5Z" fill="url(#paint0_linear_12_152)"/>
<defs>
<linearGradient id="paint0_linear_12_152" x1="10.0001" y1="1.66663" x2="10.0001" y2="18.3333" gradientUnits="userSpaceOnUse">
<stop stop-color="#DE7171"/>
<stop offset="1" stop-color="#DB1F1F"/>
</linearGradient>
</defs>
</svg>
