<svg width="32" height="32" viewBox="0 0 32 32" fill="none" xmlns="http://www.w3.org/2000/svg">
<path d="M8.75138 20.4C8.42071 20.4 8.14871 20.304 7.93538 20.112C7.73271 19.92 7.65271 19.632 7.69538 19.248C7.70604 19.1093 7.73804 18.9653 7.79138 18.816C7.85538 18.656 7.92471 18.5013 7.99938 18.352C8.06338 18.2027 8.12738 18.128 8.19138 18.128C8.24471 18.128 8.25004 18.1707 8.20738 18.256C8.06871 18.544 7.99938 18.8 7.99938 19.024C7.99938 19.2587 8.07938 19.4347 8.23938 19.552C8.41004 19.6693 8.62871 19.728 8.89538 19.728C9.41804 19.728 9.99404 19.5627 10.6234 19.232C11.2527 18.8907 11.9034 18.4587 12.5754 17.936C13.2474 17.4027 13.8927 16.848 14.5114 16.272C14.0954 16.2507 13.706 16.2293 13.3434 16.208C12.9807 16.1867 12.6607 16.176 12.3834 16.176C12.1487 16.176 11.866 16.1973 11.5354 16.24C11.2047 16.2827 10.9487 16.3947 10.7674 16.576C10.6927 16.6507 10.6234 16.7627 10.5594 16.912C10.506 17.0507 10.4794 17.1947 10.4794 17.344C10.4794 17.3867 10.4794 17.4293 10.4794 17.472C10.49 17.504 10.5007 17.5413 10.5114 17.584C10.4687 17.5627 10.3887 17.5467 10.2714 17.536C10.1647 17.5147 10.0954 17.4453 10.0634 17.328C10.0527 17.296 10.0474 17.2427 10.0474 17.168C10.0474 16.9973 10.1114 16.8587 10.2394 16.752C10.3674 16.6347 10.522 16.5333 10.7034 16.448C10.8847 16.3627 11.05 16.288 11.1994 16.224C11.5514 16.0747 11.914 15.952 12.2874 15.856C12.6607 15.76 13.0394 15.712 13.4234 15.712C13.8607 15.712 14.4047 15.728 15.0554 15.76C15.5567 15.2693 16.0207 14.8053 16.4474 14.368C16.874 13.9307 17.2207 13.568 17.4874 13.28C17.8607 12.8853 18.2554 12.5493 18.6714 12.272C19.098 11.984 19.53 11.7813 19.9674 11.664H19.0874C18.714 11.664 18.3087 11.68 17.8714 11.712C17.434 11.744 17.0234 11.8133 16.6394 11.92C16.2554 12.0267 15.9354 12.1867 15.6794 12.4C15.5194 12.5387 15.3967 12.6987 15.3114 12.88C15.2367 13.0507 15.1994 13.2107 15.1994 13.36C15.1994 13.5627 15.258 13.7013 15.3754 13.776C15.386 13.776 15.3914 13.7813 15.3914 13.792C15.3914 13.824 15.354 13.8613 15.2794 13.904C15.2047 13.936 15.1514 13.9413 15.1194 13.92C15.0127 13.8453 14.9167 13.696 14.8314 13.472C14.7567 13.2373 14.73 13.0507 14.7514 12.912C14.8047 12.5813 14.9487 12.3147 15.1834 12.112C15.4287 11.8987 15.7274 11.7333 16.0794 11.616C16.442 11.4987 16.8207 11.4187 17.2154 11.376C17.6207 11.3333 18.0047 11.3067 18.3674 11.296C18.7407 11.2853 19.0554 11.28 19.3114 11.28H21.0554C21.0767 11.28 21.082 11.2853 21.0714 11.296C21.338 11.1787 21.6154 11.0613 21.9034 10.944C22.202 10.8267 22.458 10.768 22.6714 10.768C22.7247 10.768 22.778 10.784 22.8314 10.816C22.8954 10.848 22.9274 10.88 22.9274 10.912C22.9274 10.9653 22.8207 10.992 22.6074 10.992C22.5007 10.992 22.3887 11.0133 22.2714 11.056C22.1647 11.088 22.0207 11.2 21.8394 11.392C21.69 11.5413 21.5034 11.7813 21.2794 12.112C21.0554 12.4427 20.81 12.832 20.5434 13.28C20.2767 13.7173 20.01 14.1867 19.7434 14.688C19.4767 15.1787 19.2207 15.664 18.9754 16.144C18.73 16.624 18.5167 17.0667 18.3354 17.472C18.314 17.536 18.2554 17.6853 18.1594 17.92C18.0634 18.144 17.9727 18.3947 17.8874 18.672C17.802 18.9387 17.7594 19.1787 17.7594 19.392C17.7594 19.68 17.8607 19.824 18.0634 19.824C18.1594 19.824 18.2554 19.8027 18.3514 19.76C18.49 19.7067 18.634 19.6267 18.7834 19.52C18.9327 19.4133 19.0767 19.2907 19.2154 19.152C19.4927 18.8853 19.7274 18.6293 19.9194 18.384C20.1114 18.128 20.2287 17.9733 20.2714 17.92C20.3034 17.8667 20.3407 17.84 20.3834 17.84C20.426 17.84 20.4474 17.8667 20.4474 17.92C20.4474 17.952 20.4314 17.9947 20.3994 18.048C20.3247 18.1547 20.186 18.3413 19.9834 18.608C19.7807 18.864 19.5407 19.1253 19.2634 19.392C18.9967 19.6587 18.7087 19.8613 18.3994 20C18.3034 20.0427 18.202 20.0747 18.0954 20.096C17.9887 20.128 17.882 20.144 17.7754 20.144C17.562 20.144 17.3647 20.0693 17.1834 19.92C17.0127 19.7707 16.9274 19.5253 16.9274 19.184C16.9274 18.8747 16.986 18.544 17.1034 18.192C17.2314 17.8293 17.3487 17.536 17.4554 17.312C17.6687 16.8533 17.9194 16.3413 18.2074 15.776C18.506 15.2107 18.81 14.6453 19.1194 14.08C19.4394 13.5147 19.7327 13.0027 19.9994 12.544C20.266 12.0853 20.4847 11.744 20.6554 11.52C20.4847 11.52 20.2554 11.5893 19.9674 11.728C19.6794 11.856 19.37 12.032 19.0394 12.256C18.7194 12.4693 18.4207 12.72 18.1434 13.008C17.8127 13.3493 17.4287 13.7653 16.9914 14.256C16.5647 14.7467 16.1007 15.2587 15.5994 15.792C15.8447 15.8027 16.09 15.8133 16.3354 15.824C16.5807 15.824 16.826 15.824 17.0714 15.824C17.242 15.824 17.4287 15.808 17.6314 15.776C17.8447 15.7333 18.042 15.6693 18.2234 15.584C18.2234 15.584 18.1914 15.6427 18.1274 15.76C18.074 15.8667 17.978 15.9787 17.8394 16.096C17.7114 16.2027 17.5354 16.2667 17.3114 16.288C17.1087 16.2987 16.906 16.3093 16.7034 16.32C16.5007 16.32 16.298 16.32 16.0954 16.32C15.9247 16.32 15.754 16.32 15.5834 16.32C15.4234 16.32 15.2634 16.3147 15.1034 16.304C14.6127 16.816 14.1007 17.3173 13.5674 17.808C13.034 18.288 12.4954 18.7253 11.9514 19.12C11.4074 19.5147 10.8634 19.824 10.3194 20.048C9.78604 20.2827 9.26338 20.4 8.75138 20.4Z" fill="#56008B"/>
</svg>
